<svg width="92" height="16" viewBox="0 0 92 16" fill="none" xmlns="http://www.w3.org/2000/svg">
<path d="M0.611633 0.833333H3.75163L5.15163 10.8533H5.19163L6.59163 0.833333H9.73163V14.8333H7.65163V4.23333H7.61163L6.01163 14.8333H4.17163L2.57163 4.23333H2.53163V14.8333H0.611633V0.833333ZM13.0733 0.833333H16.0533L18.3333 14.8333H16.1333L15.7333 12.0533V12.0933H13.2333L12.8333 14.8333H10.7933L13.0733 0.833333ZM15.4733 10.1933L14.4933 3.27333H14.4533L13.4933 10.1933H15.4733ZM19.4008 0.833333H21.6008V6.73333L24.4008 0.833333H26.6008L23.9808 5.97333L26.6408 14.8333H24.3408L22.4808 8.59333L21.6008 10.3733V14.8333H19.4008V0.833333ZM27.682 0.833333H29.882V12.8333H33.502V14.8333H27.682V0.833333ZM34.557 0.833333H40.557V2.83333H36.757V6.53333H39.777V8.53333H36.757V12.8333H40.557V14.8333H34.557V0.833333ZM41.8225 0.833333H45.0825C46.2158 0.833333 47.0425 1.1 47.5625 1.63333C48.0825 2.15333 48.3425 2.96 48.3425 4.05333V4.91333C48.3425 6.36667 47.8625 7.28667 46.9025 7.67333V7.71333C47.4358 7.87333 47.8091 8.2 48.0225 8.69333C48.2491 9.18667 48.3625 9.84667 48.3625 10.6733V13.1333C48.3625 13.5333 48.3758 13.86 48.4025 14.1133C48.4291 14.3533 48.4958 14.5933 48.6025 14.8333H46.3625C46.2825 14.6067 46.2291 14.3933 46.2025 14.1933C46.1758 13.9933 46.1625 13.6333 46.1625 13.1133V10.5533C46.1625 9.91333 46.0558 9.46667 45.8425 9.21333C45.6425 8.96 45.2891 8.83333 44.7825 8.83333H44.0225V14.8333H41.8225V0.833333ZM44.8225 6.83333C45.2625 6.83333 45.5891 6.72 45.8025 6.49333C46.0291 6.26667 46.1425 5.88667 46.1425 5.35333V4.27333C46.1425 3.76666 46.0491 3.4 45.8625 3.17333C45.6891 2.94667 45.4091 2.83333 45.0225 2.83333H44.0225V6.83333H44.8225ZM56.212 15.0333C55.1454 15.0333 54.332 14.7333 53.772 14.1333C53.212 13.52 52.932 12.6467 52.932 11.5133V4.15333C52.932 3.02 53.212 2.15333 53.772 1.55333C54.332 0.939998 55.1454 0.633331 56.212 0.633331C57.2787 0.633331 58.092 0.939998 58.652 1.55333C59.212 2.15333 59.4921 3.02 59.4921 4.15333V5.35333H57.412V4.01333C57.412 3.09333 57.032 2.63333 56.272 2.63333C55.512 2.63333 55.132 3.09333 55.132 4.01333V11.6733C55.132 12.58 55.512 13.0333 56.272 13.0333C57.032 13.0333 57.412 12.58 57.412 11.6733V8.93333H56.312V6.93333H59.4921V11.5133C59.4921 12.6467 59.212 13.52 58.652 14.1333C58.092 14.7333 57.2787 15.0333 56.212 15.0333ZM60.9045 0.833333H64.1645C65.2979 0.833333 66.1245 1.1 66.6445 1.63333C67.1646 2.15333 67.4245 2.96 67.4245 4.05333V4.91333C67.4245 6.36667 66.9445 7.28667 65.9846 7.67333V7.71333C66.5179 7.87333 66.8912 8.2 67.1045 8.69333C67.3312 9.18667 67.4445 9.84667 67.4445 10.6733V13.1333C67.4445 13.5333 67.4579 13.86 67.4845 14.1133C67.5112 14.3533 67.5779 14.5933 67.6845 14.8333H65.4445C65.3645 14.6067 65.3112 14.3933 65.2845 14.1933C65.2579 13.9933 65.2446 13.6333 65.2446 13.1133V10.5533C65.2446 9.91333 65.1379 9.46667 64.9245 9.21333C64.7245 8.96 64.3712 8.83333 63.8645 8.83333H63.1045V14.8333H60.9045V0.833333ZM63.9045 6.83333C64.3445 6.83333 64.6712 6.72 64.8846 6.49333C65.1112 6.26667 65.2245 5.88667 65.2245 5.35333V4.27333C65.2245 3.76666 65.1312 3.4 64.9445 3.17333C64.7712 2.94667 64.4912 2.83333 64.1045 2.83333H63.1045V6.83333H63.9045ZM72.1512 15.0333C71.0712 15.0333 70.2445 14.7267 69.6712 14.1133C69.0979 13.5 68.8108 12.6333 68.8108 11.5133V4.15333C68.8108 3.03333 69.0979 2.16666 69.6712 1.55333C70.2445 0.939998 71.0712 0.633331 72.1512 0.633331C73.2312 0.633331 74.0579 0.939998 74.6312 1.55333C75.2045 2.16666 75.4912 3.03333 75.4912 4.15333V11.5133C75.4912 12.6333 75.2045 13.5 74.6312 14.1133C74.0579 14.7267 73.2312 15.0333 72.1512 15.0333ZM72.1512 13.0333C72.9112 13.0333 73.2908 12.5733 73.2908 11.6533V4.01333C73.2908 3.09333 72.9112 2.63333 72.1512 2.63333C71.3912 2.63333 71.0112 3.09333 71.0112 4.01333V11.6533C71.0112 12.5733 71.3912 13.0333 72.1512 13.0333ZM80.1787 15.0333C79.112 15.0333 78.2987 14.7333 77.7387 14.1333C77.1787 13.52 76.8987 12.6467 76.8987 11.5133V0.833333H79.0987V11.6733C79.0987 12.1533 79.192 12.5 79.3787 12.7133C79.5787 12.9267 79.8587 13.0333 80.2187 13.0333C80.5787 13.0333 80.8521 12.9267 81.0387 12.7133C81.2387 12.5 81.3387 12.1533 81.3387 11.6733V0.833333H83.4587V11.5133C83.4587 12.6467 83.1787 13.52 82.6187 14.1333C82.0587 14.7333 81.2454 15.0333 80.1787 15.0333ZM85.0258 0.833333H88.2658C89.3591 0.833333 90.1791 1.12667 90.7258 1.71333C91.2725 2.3 91.5458 3.16 91.5458 4.29333V5.67333C91.5458 6.80667 91.2725 7.66667 90.7258 8.25333C90.1791 8.84 89.3591 9.13333 88.2658 9.13333H87.2258V14.8333H85.0258V0.833333ZM88.2658 7.13333C88.6258 7.13333 88.8925 7.03333 89.0658 6.83333C89.2525 6.63333 89.3458 6.29333 89.3458 5.81333V4.15333C89.3458 3.67333 89.2525 3.33333 89.0658 3.13333C88.8925 2.93333 88.6258 2.83333 88.2658 2.83333H87.2258V7.13333H88.2658Z" fill="#4F4F4F"/>
</svg>
